<?xml version="1.0" encoding="UTF-8" standalone="no"?>
<svg
   width="210mm"
   height="297mm"
   viewBox="0 0 210 297"
   version="1.1"
   id="svg8"
   inkscape:version="1.3 (0e150ed6c4, 2023-07-21)"
   sodipodi:docname="شعار.svg"
   xmlns:inkscape="http://www.inkscape.org/namespaces/inkscape"
   xmlns:sodipodi="http://sodipodi.sourceforge.net/DTD/sodipodi-0.dtd"
   xmlns:xlink="http://www.w3.org/1999/xlink"
   xmlns="http://www.w3.org/2000/svg"
   xmlns:svg="http://www.w3.org/2000/svg"
   xmlns:rdf="http://www.w3.org/1999/02/22-rdf-syntax-ns#"
   xmlns:cc="http://creativecommons.org/ns#"
   xmlns:dc="http://purl.org/dc/elements/1.1/">
  <defs
     id="defs2">
    <linearGradient
       inkscape:collect="always"
       id="linearGradient855">
      <stop
         style="stop-color:#ff8f00;stop-opacity:1"
         offset="0"
         id="stop851" />
      <stop
         style="stop-color:#feaf00;stop-opacity:1"
         offset="1"
         id="stop853" />
    </linearGradient>
    <linearGradient
       inkscape:collect="always"
       xlink:href="#linearGradient855"
       id="linearGradient857"
       x1="118.53403"
       y1="-53.053001"
       x2="111.85229"
       y2="-86.060783"
       gradientUnits="userSpaceOnUse" />
    <linearGradient
       inkscape:collect="always"
       xlink:href="#linearGradient855"
       id="linearGradient863"
       gradientUnits="userSpaceOnUse"
       x1="118.53403"
       y1="-53.053001"
       x2="111.85229"
       y2="-86.060783" />
  </defs>
  <sodipodi:namedview
     id="base"
     pagecolor="#ffffff"
     bordercolor="#666666"
     borderopacity="1.0"
     inkscape:pageopacity="0.0"
     inkscape:pageshadow="2"
     inkscape:zoom="0.49497475"
     inkscape:cx="624.27427"
     inkscape:cy="457.5991"
     inkscape:document-units="mm"
     inkscape:current-layer="layer1"
     inkscape:document-rotation="0"
     showgrid="false"
     inkscape:window-width="1920"
     inkscape:window-height="1009"
     inkscape:window-x="-8"
     inkscape:window-y="-8"
     inkscape:window-maximized="1"
     inkscape:showpageshadow="2"
     inkscape:pagecheckerboard="0"
     inkscape:deskcolor="#d1d1d1" />
  <metadata
     id="metadata5">
    <rdf:RDF>
      <cc:Work
         rdf:about="">
        <dc:format>image/svg+xml</dc:format>
        <dc:type
           rdf:resource="http://purl.org/dc/dcmitype/StillImage" />
        <dc:title />
      </cc:Work>
    </rdf:RDF>
  </metadata>
  <g
     inkscape:label="Layer 1"
     inkscape:groupmode="layer"
     id="layer1">
    <g
       id="g861"
       transform="matrix(1.9905205,0,0,1.9905205,-121.3795,267.85065)"
       inkscape:export-xdpi="96"
       inkscape:export-ydpi="96">
      <path
         style="fill:url(#linearGradient863);fill-opacity:1;stroke-width:0.509062"
         d="m 110.42726,-47.549782 c -1.77351,-0.401975 -4.21575,-1.311734 -5.42721,-2.021697 -3.01873,-1.769095 -7.10892,-6.48617 -9.06564,-10.455088 -1.53173,-3.106898 -2.068981,-5.908464 -2.027834,-8.975394 0.04422,-3.29583 0.429304,-5.598133 2.437154,-9.583337 1.11994,-2.222856 2.30048,-4.124462 2.62343,-4.225802 0.34173,-0.10722 0.72951,0.6582 0.92767,1.831097 0.18727,1.108433 0.63331,2.41579 0.9912,2.905237 0.55959,0.765282 0.68755,0.430994 0.91376,-2.387087 0.33604,-4.186307 2.28564,-8.356287 5.40217,-11.554637 2.48187,-2.54703 8.49545,-6.39999 10.90395,-6.98628 l 1.39971,-0.34073 -1.00674,2.21865 c -1.97521,4.35296 -1.10269,8.03476 3.99837,16.872033 1.72703,2.991968 3.27911,6.135228 3.44907,6.985022 0.16996,0.849793 0.49875,1.66234 0.73064,1.80566 0.72596,0.448668 2.09806,-2.879281 2.72762,-6.615728 l 0.60409,-3.585177 1.33292,2.286993 c 2.01074,3.44998 2.58778,6.508686 2.28499,12.111858 -0.37377,6.916283 -1.77266,11.028523 -4.92501,14.477691 -4.60221,5.035556 -11.03224,6.878155 -18.27431,5.236716 z"
         id="path847"
         sodipodi:nodetypes="sssassssssscssssscssss" />
      <path
         style="fill:#212e3e;fill-opacity:1;stroke-width:0.509062"
         d="m 73.054175,-26.80267 c -0.82267,-0.911987 -0.89086,-2.881256 -0.89086,-25.727296 v -24.739719 l 1.37281,-1.079854 c 0.87872,-0.691199 1.93222,-1.02513 2.9271,-0.927805 l 1.5543,0.152048 0.25453,19.87665 c 0.22855,17.848206 0.34593,20.01606 1.15018,21.242725 1.33391,2.034515 3.24356,2.787555 8.0284,3.165859 5.36383,0.424083 10.85496,1.847786 14.645075,3.797079 3.24346,1.668139 6.11134,3.848648 5.66083,4.304043 -0.16258,0.16435 -1.65158,0.0279 -3.3089,-0.303287 -3.80915,-0.761134 -17.154095,-0.734291 -21.848565,0.04393 -7.50356,1.24392 -8.57938,1.26596 -9.5449,0.19562 z m 75.300365,0.35462 c -0.79237,-0.2377 -4.47821,-0.706069 -8.19077,-1.040823 -5.26835,-0.475041 -8.06911,-0.472658 -12.75877,0.01084 -3.30477,0.34072 -6.3507,0.750743 -6.76875,0.911163 -1.76393,0.67689 -0.12583,-1.26465 2.62877,-3.1157 4.06347,-2.730601 9.17333,-4.33922 15.83743,-4.985738 6.09566,-0.591372 7.91647,-1.245674 9.28803,-3.337621 0.80425,-1.226666 0.92163,-3.394519 1.15018,-21.242725 l 0.25453,-19.876645 1.64597,-0.158886 c 1.21638,-0.117418 1.98034,0.175486 2.9271,1.12225 l 1.28114,1.281135 v 24.344824 c 0,27.619896 0.1368,26.642906 -3.71956,26.563856 -1.17406,-0.0241 -2.78294,-0.23823 -3.5753,-0.47593 z m -39.28427,-4.386508 c -2.39887,-2.131679 -7.54567,-4.830856 -11.386255,-5.971388 -1.50179,-0.445984 -5.28119,-1.071809 -8.39867,-1.390731 -3.66491,-0.374919 -5.983,-0.856114 -6.559,-1.361531 -0.8243,-0.723274 -0.89086,-2.538527 -0.89086,-24.295242 0,-27.49567 -0.43452,-25.49828 5.4998,-25.28125 3.96304,0.14494 10.23067,1.35583 11.00002,2.12518 0.34901,0.34901 0.36039,0.75817 0.0332,1.19444 -2.14669,2.86262 -4.35446,6.66955 -5.35576,9.235092 -1.69032,4.330949 -1.70888,11.995558 -0.0388,16.024809 1.41551,3.415092 4.88121,8.35118 7.567395,10.777989 2.26594,2.047145 6.58381,4.209664 9.41977,4.717702 l 1.90898,0.341982 v 7.867384 c 0,4.327063 -0.17181,7.857853 -0.3818,7.846196 -0.20998,-0.01166 -1.2981,-0.835442 -2.41804,-1.830632 z m 6.98633,-5.911365 0.14053,-7.763188 2.86951,-0.308507 c 6.83329,-0.734652 12.87622,-5.867743 15.43045,-13.107197 0.42361,-1.200644 1.01285,-4.135707 1.30943,-6.522361 0.99837,-8.03423 -0.68006,-14.348474 -5.17241,-19.458614 -1.08074,-1.22935 -1.96497,-2.40421 -1.96497,-2.61081 0,-1.02537 6.62692,-2.49572 11.85317,-2.62991 5.58867,-0.1435 5.17558,-1.98911 5.35181,23.910912 0.0833,12.23952 0.0161,22.995389 -0.14917,23.901936 -0.16533,0.906542 -0.69162,1.855402 -1.16954,2.108574 -0.47793,0.253166 -3.34252,0.724949 -6.36575,1.048402 -3.02324,0.323453 -7.0321,1.053808 -8.90858,1.623015 -3.82747,1.161022 -9.39588,4.250827 -11.2637,6.250014 -0.67878,0.726507 -1.42924,1.320923 -1.66771,1.320923 -0.23847,0 -0.37035,-3.493435 -0.29307,-7.763189 z"
         id="path849"
         sodipodi:nodetypes="sscsscsssssccsssssssssscsscscscsssssscsssscssccscssssssscssssss" />
    </g>
  </g>
</svg>
